#!OML:ASF Y:\EmotionMaleHayes\Project 1\Capture day 1\Session 1\Male1.ASF
:FULLY-SPECIFIED
:DEGREES
424
root -24.7012 16.9853 -7.54433 182.214 64.3377 179.54
lowerback 9.87663 -0.581706 -11.8856
upperback 5.42954 -1.36093 -2.95769
thorax 0.451843 -0.718544 3.67851
lowerneck -22.3355 0.902529 -0.2313
upperneck 34.9939 0.894452 4.5734
head 16.2671 1.3937 2.32908
rclavicle -1.19271e-015 7.4743e-014
rhumerus -63.044 24.3088 -93.9019
rradius 81.308
rwrist -0.736699
rhand -10.6335 -32.5799
rfingers 7.12502
rthumb 15.3736 -61.9883
lclavicle -1.19271e-015 7.4743e-014
lhumerus -8.69681 -26.9794 70.4574
lradius 81.4983
lwrist 3.28267
lhand -35.0304 -36.6225
lfingers 7.12502
lthumb -8.17415 -6.80064
rfemur 0.375294 -12.2787 12.8952
rtibia 13.9047
rfoot -20.3058 -11.0263
rtoes 8.69465
lfemur 2.82174 9.57413 -15.8862
ltibia 35.9373
lfoot -9.3943 0.0388577
ltoes -19.672
425
root -24.6285 16.9783 -7.60386 182.737 64.5506 180.196
lowerback 10.0405 -0.474119 -11.326
upperback 5.39064 -1.22207 -2.60006
thorax 0.282546 -0.644136 3.73847
lowerneck -22.3053 0.7988 -0.532796
upperneck 35.1109 0.97371 4.30842
head 16.3126 1.34698 2.28615
rclavicle -2.94201e-014 3.49861e-014
rhumerus -62.8004 24.6285 -93.25
rradius 82.8162
rwrist 0.192302
rhand -8.11623 -32.4307
rfingers 7.12502
rthumb 17.797 -61.6363
lclavicle -2.94201e-014 3.49861e-014
lhumerus -10.3021 -27.066 71.0474
lradius 82.7972
lwrist 3.55162
lhand -35.3007 -37.7914
lfingers 7.12502
lthumb -8.435 -7.97989
rfemur 0.904932 -12.2842 13.0702
rtibia 13.6206
rfoot -20.4052 -10.8445
rtoes 8.51375
lfemur 1.06168 10.0145 -15.1813
ltibia 39.6772
lfoot -6.96516 -0.947644
ltoes -19.5877
426
root -24.5585 16.9736 -7.66136 183.703 64.5582 181.473
lowerback 10.4054 -0.445649 -10.3174
upperback 5.42421 -1.15691 -2.31814
thorax 0.0735754 -0.5933 3.47743
lowerneck -22.3214 0.740527 -0.594924
upperneck 35.2324 1.02461 4.03978
head 16.3762 1.32121 2.19526
rclavicle 2.54444e-014 -2.54444e-014
rhumerus -62.5501 24.9723 -93.1086
rradius 84.2749
rwrist -0.123216
rhand -9.2999 -31.6398
rfingers 7.12502
rthumb 16.6577 -60.945
lclavicle 2.54444e-014 -2.54444e-014
lhumerus -11.8792 -27.1225 71.4859
lradius 84.0101
lwrist 3.58103
lhand -35.2927 -38.6299
lfingers 7.12502
lthumb -8.42729 -8.81802
rfemur 1.58042 -12.3445 13.5395
rtibia 13.3699
rfoot -20.6297 -10.8268
rtoes 7.50837
lfemur -0.697841 10.3492 -14.1819
ltibia 43.2194
lfoot -4.38055 -1.62142
ltoes -17.2995
427
root -24.4869 16.9619 -7.71947 184.895 64.7201 182.906
lowerback 10.5624 -0.322891 -9.30242
upperback 5.48897 -0.929633 -2.01427
thorax -0.0047215 -0.469305 3.2129
lowerneck -22.248 0.652448 -0.50236
upperneck 35.1547 0.993069 3.66306
head 16.3235 1.2625 2.00208
rclavicle 7.51406e-014 2.8625e-014
rhumerus -62.0142 25.1872 -92.8174
rradius 85.507
rwrist -0.64321
rhand -9.66806 -31.1532
rfingers 7.12502
rthumb 16.3033 -60.4878
lclavicle 7.51406e-014 2.8625e-014
lhumerus -13.4341 -27.3006 71.9528
lradius 85.1274
lwrist 3.37578
lhand -35.5792 -39.5036
lfingers 7.12502
lthumb -8.70376 -9.70302
rfemur 2.02616 -12.2602 14.1376
rtibia 13.3369
rfoot -20.9904 -10.8684
rtoes 5.27178
lfemur -2.53887 10.6676 -13.1336
ltibia 46.5917
lfoot -1.91572 -2.58106
ltoes -15.6346
428
root -24.4237 16.947 -7.77764 186.174 64.8228 184.507
lowerback 10.9055 -0.188587 -8.16166
upperback 5.56432 -0.68473 -1.71213
thorax -0.171537 -0.328421 2.87251
lowerneck -22.2225 0.528401 -0.443212
upperneck 35.0447 0.891304 3.34956
head 16.2676 1.17875 1.8287
rclavicle -7.35503e-014 2.06736e-014
rhumerus -61.4097 25.3326 -92.4885
rradius 86.7087
rwrist -1.29062
rhand -9.72271 -31.0475
rfingers 7.12502
rthumb 16.2507 -60.3865
lclavicle -7.35503e-014 2.06736e-014
lhumerus -15.0987 -27.496 72.4579
lradius 86.3102
lwrist 3.06588
lhand -35.7688 -39.9735
lfingers 7.12502
lthumb -8.88672 -10.1806
rfemur 2.52989 -12.2185 14.7454
rtibia 13.3013
rfoot -21.333 -10.8139
rtoes 3.9266
lfemur -4.3529 10.7087 -12.0832
ltibia 49.8091
lfoot 0.159318 -3.82303
ltoes -12.1211
429
root -24.3595 16.9254 -7.84028 187.775 64.8808 186.437
lowerback 11.2419 -0.0993492 -6.84755
upperback 5.66686 -0.468321 -1.34757
thorax -0.297285 -0.201035 2.49796
lowerneck -22.3608 0.419537 -0.635083
upperneck 35.0285 0.824832 3.27977
head 16.2933 1.11234 1.81961
rclavicle -1.43125e-014 -4.77083e-014
rhumerus -60.6789 25.5509 -92.0607
rradius 87.9183
rwrist -2.04417
rhand -10.0702 -31.3828
rfingers 7.12502
rthumb 15.9161 -60.7488
lclavicle -1.43125e-014 -4.77083e-014
lhumerus -16.8268 -27.4407 73.1684
lradius 87.4528
lwrist 2.77788
lhand -35.3937 -39.8966
lfingers 7.12502
lthumb -8.52474 -10.0886
rfemur 3.07743 -12.2664 15.4761
rtibia 13.1769
rfoot -21.5336 -10.5067
rtoes 4.5804
lfemur -6.11801 10.749 -10.901
ltibia 52.6961
lfoot 1.44215 -5.25119
ltoes -10.958
